<?xml version="1.0" standalone="no"?>
<!DOCTYPE svg PUBLIC "-//W3C//DTD SVG 1.1//EN" "http://www.w3.org/Graphics/SVG/1.1/DTD/svg11.dtd" >
<svg xmlns="http://www.w3.org/2000/svg" xmlns:xlink="http://www.w3.org/1999/xlink" version="1.1">
<metadata></metadata>
<defs>
<font id="social-warfare-icwarfareicons" horiz-adv-x="512" >
<font-face units-per-em="512" ascent="480" descent="-32" />
<missing-glyph horiz-adv-x="500" />
<glyph horiz-adv-x="0" />
<glyph unicode="&#xd;" />
<glyph unicode="0" d="M302 112h-98v33q0 14 9 23t23 9h66q41 0 70 29t29 69.5t-29 69.5t-70 29h-1l-21 1h-208q0 27 19.5 46t46.5 19h143l22 -1q67 0 115 -48t48 -115.5t-48 -115.5t-116 -48zM138 46q-27 0 -46.5 19.5t-19.5 46.5v133q0 27 19 45q19 19 45 19l151 1q33 0 33.5 -30.5 t-34.5 -31.5h-89q-38 0 -49 -12q-8 -9 -8 -38v-152h-2z" />
<glyph unicode="A" d="M256 448q-80 0 -136 -56t-56 -136q0 -58 32 -105.5t83 -70.5q0 29 3 45l24 104q-6 13 -6 30q0 22 10.5 36t26.5 14q25 0 25 -29q0 -8 -3 -19t-7.5 -25.5t-6.5 -24.5q-4 -16 5 -26.5t25 -10.5q27 0 44 30t17 73q0 32 -21.5 52.5t-58.5 20.5q-42 0 -68 -27t-26 -64 q0 -25 12 -38q5 -6 4 -11q-4 -8 -4 -16q-2 -8 -9 -5q-40 16 -40 73q0 46 36.5 83t100.5 37q54 0 88 -32.5t34 -77.5q0 -57 -29 -94t-75 -37q-35 0 -46 24q-12 -45 -13 -53q-5 -14 -19 -42q34 -8 54 -8q79 0 135.5 56.5t56.5 135.5q0 81 -56 137.5t-136 56.5z" />
<glyph unicode="B" d="M299 416v-320q0 -14 -9.5 -23t-22.5 -9h-21q-13 0 -22.5 9.5t-9.5 22.5v320q0 13 9.5 22.5t22.5 9.5h21q13 0 22.5 -9t9.5 -23zM416 213h-320q-14 0 -23 9.5t-9 22.5v21q0 13 9.5 22.5t22.5 9.5h320q13 0 22.5 -9.5t9.5 -22.5v-21q0 -13 -9 -22.5t-23 -9.5z" />
<glyph unicode="C" d="M446 405q-6 22 -32 22h-315q-24 0 -32 -22q-3 -3 -3 -13v-115l2 -23q6 -78 75 -129l1 -2q35 -24 76 -33q12 -4 38 -4q13 0 35 4q3 0 5 1h2q44 12 72 32l1 2q66 50 75 129l2 23v115q0 8 -2 13zM365 283l-90 -86q-8 -8 -17 -8q-10 0 -18 8l-90 86q-8 7 -8 18t8 19t19 8 t18 -8l72 -69l72 69q8 8 18.5 8t18.5 -8q15 -19 -3 -37z" />
<glyph unicode="D" d="M384 301v78q0 29 -20.5 49t-49.5 20h-116q-29 0 -48.5 -20t-19.5 -49v-77q-20 -7 -32.5 -24.5t-12.5 -39.5v-43q0 -22 12.5 -39t32.5 -25q1 -27 21 -46t47 -19h116q27 0 47 19t21 46q20 8 32.5 25.5t12.5 38.5v43q0 46 -43 63zM171 379q0 12 8 19.5t19 7.5h116 q12 0 19.5 -8t7.5 -19v-115q0 -12 -8 -19.5t-19 -7.5h-116q-12 0 -19.5 8t-7.5 19v115zM314 106h-116q-20 0 -25 19h168q-9 -19 -27 -19zM341 178q-11 0 -11 11t11 11t11 -11t-11 -11zM213 354h86q11 0 11 11t-11 11h-86q-11 0 -11 -11t11 -11zM213 309h86q11 0 11 11 t-11 11h-86q-11 0 -11 -11t11 -11zM213 264h86q11 0 11 11q0 13 -9 13h-87q-11 0 -11 -11q0 -13 10 -13z" />
<glyph unicode="E" d="M400 310q-25 0 -38 -19l-2 -3q-33 24 -86 29l14 48l42 -10q2 -16 13 -25.5t27 -9.5q17 0 29 12t12 30q0 17 -11.5 29t-29.5 12q-23 0 -37 -22l-51 13q-12 2 -15 -8l-21 -66q-57 -3 -96 -27l-3 3q-14 14 -35 14q-20 0 -34 -13.5t-14 -34.5q0 -34 32 -44l8 -4v2v-2 q0 -42 44 -72t106 -30q63 0 107 29.5t44 71.5l8 3q33 9 33 46q2 20 -12 34t-34 14zM371 374q15 0 15 -14t-15 -14q-14 0 -14 14q-1 6 3 10t11 4zM104 242q-14 5 -14 20q0 10 6 16.5t16 6.5q11 0 16 -8l3 -3q-13 -15 -22 -34zM256 136q-52 0 -89 23t-37 55q0 33 36.5 56 t89.5 23t89.5 -23t36.5 -56q0 -32 -37 -55t-89 -23zM408 242l-6 -2q-8 20 -23 34l3 4q8 8 16 8q10 0 16.5 -6t6.5 -16q2 -17 -13 -22zM230 238q0 10 -6 16.5t-16 6.5t-16 -6.5t-6 -16.5q0 -9 6 -15.5t16 -6.5t16 6.5t6 15.5zM306 261q-10 0 -16.5 -6.5t-6.5 -16.5 q0 -9 6.5 -15.5t16.5 -6.5q9 0 15.5 6.5t6.5 15.5t-7 16t-15 7zM304 190q-5 0 -8 -3q-11 -11 -40 -11q-30 0 -38 11q-9 9 -18 0q-3 -1 -3 -8q0 -5 3 -8q17 -17 56 -17t56 17q3 3 3 8q0 7 -3 8q-3 3 -8 3z" />
<glyph unicode="F" d="M168 115q0 -21 -15 -36t-36 -15q-22 0 -37.5 15.5t-15.5 35.5q0 21 15 36t36 15q23 1 38 -14t15 -37zM64 317v-77q72 -2 123 -53t53 -123h77q0 104 -74.5 178.5t-178.5 74.5zM64 371q125 0 216 -89q90 -90 90 -218h78q0 158 -113 271t-271 113v-77z" />
<glyph unicode="G" d="M368 194q-27 0 -45 -18l-117 66q6 14 0 30l117 66q20 -19 46 -18.5t45 19.5q19 20 18.5 46t-19.5 45q-20 19 -46 18.5t-45 -19.5q-23 -23 -18 -55l-120 -67q-20 17 -47 14.5t-44 -22.5t-14.5 -47t22.5 -44q18 -14 41.5 -14t41.5 14l120 -67q-4 -26 12 -48t42 -26 q27 -4 48.5 12t25.5 43q4 26 -12 47.5t-42 25.5q-2 -1 -10 -1z" />
<glyph unicode="H" d="M437 216q5 22 5 38q0 75 -53.5 127.5t-129.5 52.5q-10 0 -32 -4q-26 16 -56 16q-44 0 -75.5 -30.5t-31.5 -73.5q0 -27 14 -52q-3 -12 -3 -37q0 -74 53.5 -126.5t129.5 -52.5q16 0 33 3q24 -13 50 -13q44 0 74.5 30t30.5 74q3 27 -9 48zM352 168q-13 -18 -37 -27 q-23 -10 -57 -10q-37 0 -66 13q-15 7 -30 26q-12 16 -12 32q0 7 8 17q7 7 20 7q8 0 16 -5q7 -5 11 -16t11 -18q4 -6 16 -11q10 -5 27 -5q23 0 37 10q13 8 13 22q0 11 -7 18q-4 6 -19 11q-6 2 -33 8q-29 4 -48 14q-20 8 -32 23q-12 13 -12 37q0 18 13 36q12 17 35 24 q24 8 55 8q26 0 43 -4q20 -6 30 -15q14 -10 18 -19q6 -12 6 -21q0 -11 -8 -17q-6 -8 -19 -8q-12 0 -16 4q-6 8 -11 15q-10 16 -16 19q-7 6 -30 6q-19 0 -32 -8q-12 -6 -12 -17q0 -5 4 -11q5 -7 11 -8l7 -3.5l7 -3.5q15 -3 26 -6q16 -3 40 -10q14 -3 32 -14q17 -15 21 -21 q8 -16 8 -32q-11 -30 -18 -40z" />
<glyph unicode="I" d="M344 307h-8v79q0 25 -18.5 43.5t-43.5 18.5h-106q-26 0 -45 -18.5t-19 -43.5v-258q0 -26 18.5 -44t43.5 -18h106q26 0 44 18t18 44v14h8q27 0 45 18.5t18 44.5v40q2 26 -16 44t-45 18zM298 126q0 -10 -7.5 -17.5t-18.5 -7.5h-106q-10 0 -17.5 7.5t-7.5 17.5v260 q0 10 7.5 17.5t17.5 7.5h106q11 0 18.5 -7.5t7.5 -17.5v-77h-63q-26 0 -44 -18.5t-18 -44.5v-40q0 -26 18.5 -44t43.5 -18h63v-18zM370 205q0 -11 -7.5 -18.5t-18.5 -7.5h-109q-11 0 -18 7.5t-7 18.5v40q0 11 7 18t18 7h109q11 0 18.5 -7.5t7.5 -17.5v-40zM250 235 q-12 0 -12 -11t12 -11q11 0 11 11t-11 11zM290 235q-12 0 -12 -11t12 -11q11 0 11 11t-11 11zM330 235q-12 0 -12 -11t12 -11q11 0 11 11t-11 11z" />
<glyph unicode="J" d="M259 75h-3h-2q-22 0 -51 21q-20 13 -30 14q-5 2 -16 2q-2 0 -23 -3q-2 0 -4.5 -1t-3.5 -1q-4 0 -6 5q-2 3 -2 10q-1 10 -6 12q-44 6 -48 20v1q0 1 1.5 2.5t1.5 2.5q10 2 19.5 6t16.5 8.5t14 10.5t11.5 12t8.5 11.5t6 9.5l4 8l2 3q6 12 1 17q-2 8 -24 16q-1 0 -2 1l-2 1 q-18 7 -18 16q3 10 14 10q4 0 5 -2q13 -5 19 -5l12 3v12q-5 58 4 76q28 61 93 61h7h1q9 0 18.5 -2t24.5 -7.5t28.5 -18.5t21.5 -33q7 -17 5 -76v-2v-11q3 -3 11 -3t19 4q2 2 7 2q4 0 6 -2q10 -2 10 -9q0 -8 -18 -16q-1 0 -2.5 -1t-2.5 -1q-22 -8 -24 -16q-2 -9 2 -17 q1 -5 8.5 -17.5t27.5 -30t45 -21.5q4 0 4 -5v-2q-5 -10 -48 -19q-4 0 -7 -13q0 -2 -0.5 -5t-0.5 -4q0 -3 -5 -3t-8 1q-10 5 -26 5q-9 0 -16 -2q-10 -1 -30 -14q-27 -21 -50 -21z" />
<glyph unicode="K" d="M256 448q-80 0 -136 -56t-56 -136t56 -136t136 -56t136 56t56 136t-56 136t-136 56zM254 109q-55 0 -78.5 27t-25.5 59q0 10 12 13l44 10q13 2 13 -12q3 -30 35 -30q15 0 24.5 7t7.5 15q-3 11 -23.5 20.5t-44 17.5t-42.5 29t-19 52q0 8 3 19t11 27t29.5 26.5t53.5 10.5 q56 0 79.5 -26.5t24.5 -56.5q0 -10 -11 -13l-46 -10q-13 -2 -13 10q-5 27 -35 27q-12 0 -19 -5.5t-5 -13.5q2 -10 23.5 -20t45.5 -18.5t44 -30.5t20 -54q0 -3 -1.5 -11t-8.5 -20.5t-18.5 -23t-32 -18t-47.5 -7.5z" />
<glyph unicode="L" d="M421 429q-13 0 -21 -3q-5 -3 -270 -114l-42 -18q-24 -9 -24 -32q0 -22 24 -32l70 -28q15 -38 24 -72q7 -24 21 -28q3 -1 8 -1q12 0 18 6l45 39l54 -50q13 -13 29 -13q13 0 23 9.5t12 21.5l54 272q6 26 -9 36q-4 3 -16 7zM408 387q-3 -12 -26 -129.5t-27 -132.5l-80 73 l-54 -46l14 59q103 104 109 111q6 5 6 8t-3 3q-2 0 -8 -3q-40 -27 -161 -93l-66 25l32 15q130 55 264 110z" />
<glyph unicode="M" d="M347 142q-29 -11 -43.5 -6t-19.5 17l-4 12v120h72v65h-72v98h-59q0 -3 -1 -9t-6 -22t-12.5 -29.5t-22 -26.5t-33.5 -19v-57h43v-125q0 -44 31 -70t74 -26q24 0 42 6t24 12l6 6z" />
<glyph unicode="N" d="M448 374q-25 -11 -45 -12q25 14 35 43q-23 -14 -49 -19q-23 25 -58 25q-38 0 -61.5 -30t-15.5 -66q-98 5 -161 82q-17 -26 -10.5 -56.5t32.5 -47.5q-20 0 -35 9q-1 -27 17 -49.5t45 -28.5q-14 -4 -35 -2q8 -24 28 -39t46 -15q-52 -40 -117 -32q56 -35 120 -35 q104 0 166 72t58 161q21 16 40 40z" />
<glyph unicode="O" d="M421 363q-11 37 -39 55q-29 19 -75 25q-45 7 -91 2q-40 -4 -64 -18q-55 -25 -64 -78q-4 -27 -6 -48q-5 -47 8 -95q13 -43 43 -60q1 0 7 -3t10 -4q2 0 5.5 -1.5t4.5 -1.5q3 -2 3 -3v-59v-8h15l3 1q0 1 10 10.5t23 22t18 18.5l2 2q1 3 4 3q9 0 27 1t28 1q44 2 70 13 q34 13 48 43q15 32 18 67q7 60 -8 115zM342 194q-4 -10 -24 -20q-5 -2 -20 0q-89 37 -135 119q-6 11 -16 37q-1 3 -1 8q0 13 9 21.5t21 11.5q8 3 16 -5q18 -18 29 -40q4 -8 -3 -17q-2 -2 -4 -3q-15 -13 -8 -31q16 -33 53 -48q10 -4 16 3l2 2q12 21 35 5q4 -4 12 -9t12 -9 q18 -7 6 -25zM266 347h-8q-10 0 -10 7q0 9 6 9q2 0 6 1t6 1q27 0 46 -19t19 -47q0 -8 -1 -11q0 -6 -8 -6h-2q-10 0 -6 9v8q1 20 -13.5 34t-34.5 14zM306 298q0 -8 -8 -8t-8 8q0 10 -7.5 17.5t-18.5 7.5q-8 0 -8 8t8 8q18 0 30 -12t12 -29zM354 278q-4 -6 -8 -6h-2 q-9 3 -6 10q1 4 1 16q0 30 -21.5 51.5t-51.5 21.5q-12 0 -16 -1q-10 0 -10 8q-1 3 1 6t5 3q7 2 21 2q37 0 63.5 -26.5t26.5 -63.5q-1 -2 -3 -21z" />
<glyph unicode="P" d="M64 333l16 -21q4 3 9 6.5t18 9t16 -2.5q6 -7 32.5 -94t33.5 -100q6 -14 18 -25t28.5 -15.5t34.5 7.5q25 16 58 47t71.5 87.5t48.5 111.5q11 63 -35 78q-41 13 -83 -18q-36 -28 -44 -70q32 19 47.5 -1t-2.5 -51q-36 -69 -53 -69q-12 0 -30 77q-3 11 -6.5 33.5t-7 38 t-10 32t-17 23.5t-25.5 4q-23 -5 -52.5 -27t-47.5 -42z" />
<glyph unicode="Q" d="M438 258q-11 -4 -30 -4q-41 0 -67 27t-26 74q0 48 29 48q27 0 27 -45q0 -17 -8 -46q2 -3 6 -7.5t19.5 -10t35.5 -1.5q14 29 14 72q0 48 -23.5 74.5t-68.5 26.5t-71.5 -31t-26.5 -78t20.5 -84t56.5 -55q-34 -65 -72 -103q-87 106 -109 288h-70q11 -88 33.5 -157.5 t48.5 -107.5t43 -56.5t31 -27.5q22 -12 40 -1q20 10 58 54.5t61 94.5q29 0 49 6v50z" />
<glyph unicode="R" d="M438 355q6 16 -12 16h-42q-14 0 -18 -11q-20 -53 -51 -86q-12 -13 -19 -13q-6 0 -6 13v81q0 16 -13 16h-66q-11 0 -11 -9q0 -3 7.5 -14t8.5 -28v-62q0 -16 -8 -16q-11 0 -33 34.5t-36 77.5q-7 16 -19 16h-42q-14 0 -14 -12q0 -7 5 -24t21 -49t40 -66q55 -77 128 -77 q30 0 30 16v39q0 9 2 11.5t9 2.5q15 0 42 -27q8 -8 17 -18t12.5 -14t8.5 -7t11 -3h42q21 0 14 18q-4 13 -35 50q-5 6 -16 17l-13 13q-6 8 0 19q0 -1 13 18t27 43t16 35v0z" />
<glyph unicode="S" d="M374 219q-14 0 -14 15q0 14 14 14q15 0 15 -14q0 -6 -4.5 -10.5t-10.5 -4.5zM299 219q-14 0 -14 15q0 14 14 14q15 0 15 -14q0 -6 -4.5 -10.5t-10.5 -4.5zM410 134q38 28 38 71q0 38 -33 65.5t-79 27.5t-79 -27.5t-33 -65.5t33 -65.5t79 -27.5q19 0 37 5h3q5 0 6 -2 l24 -14h2q3 0 3 3v3q-3 11 -5 19v2q0 4 4 6zM242 318q-8 0 -13 5t-5 13t5 13t13 5q7 0 12 -5.5t5 -12.5q0 -18 -17 -18zM154 318q-8 0 -13 5t-5 13t5 13t13 5q7 0 12 -5.5t5 -12.5t-5 -12.5t-12 -5.5zM198 411q-55 0 -94.5 -32.5t-39.5 -79.5q0 -51 46 -85q4 0 4 -6v-3 l-7 -23v-3q0 -5 5 -5l2 2l28 18q2 1 7 1h3q28 -6 43 -6h8q-5 13 -5 27q0 42 36 72t86 30h8q-6 40 -43 66.5t-87 26.5v0z" />
<glyph unicode="T" d="M392 392q-56 56 -134 56q-79 0 -135 -55.5t-56 -134.5q0 -53 26 -95l-27 -99l100 27q44 -22 92 -22q79 0 134.5 55.5t55.5 134.5q-3 80 -56 133zM258 99q-43 0 -80 23l-7 3l-59 -16l16 57l-3 7q-24 37 -24 85q0 66 46 112t112 46t112 -46q47 -47 47 -112 q-3 -66 -49.5 -112.5t-110.5 -46.5zM344 218q-11 2 -32 16q-8 2 -11 -2q-2 -3 -8 -10.5t-7 -8.5q-3 -3 -9 -2q-22 9 -39 24q-15 14 -27 34q-4 6 2 9q0 1 2.5 3.5t3.5 4.5t5 8v8q-5 5 -14 36q-4 8 -12 8h-9q-6 0 -13 -7q-16 -16 -16 -40q0 -8 3 -17t6 -15t6.5 -11t3.5 -6 q2 -5 11 -16.5t29.5 -29.5t41.5 -26q36 -14 57 -12q7 0 18.5 7.5t13.5 15.5q4 11 4 22q-3 4 -10 7z" />
<glyph unicode="U" d="M91 256q0 -48 25.5 -88t67.5 -61l-78 216q-15 -31 -15 -67zM366 264q0 15 -12 45q-16 26 -16 38t7.5 20.5t19.5 8.5h1q-45 43 -112 43q-42 0 -78.5 -19.5t-58.5 -53.5h11l43 1q8 0 8 -7q-2 -5 -6 -6q-10 -1 -19 -1l59 -179l37 108l-26 71l-18 1q-8 0 -6 8q1 6 8 5 q27 -1 43 -1l43 1q8 0 8 -7q-2 -5 -6 -6q-10 -1 -19 -1l59 -178l16 55q14 34 14 54zM259 242l-49 -144q20 -7 46 -7q30 0 54 10l-1 1zM400 334q0 -2 1 -8t1 -9q0 -24 -13 -59l-50 -146q38 22 60 59.5t22 82.5q0 44 -21 80zM256 448q-80 0 -136 -56t-56 -136t56 -136t136 -56 t136 56t56 136t-56 136t-136 56zM256 74q-76 0 -129 53t-53 129t53 129t129 53t129 -53t53 -129t-53 -129t-129 -53z" />
<glyph unicode="V" d="M158 171h-59q-4 0 -6 4t0 7l62 116q4 2 0 6l-38 69q-2 4 -0.5 7.5t3.5 3.5h59q4 0 7 -5l44 -78q4 -3 0 -7l-65 -121q-3 -2 -7 -2zM419 437l-120 -219q-2 -4 0 -7l77 -136q4 -11 -6 -11h-60q-3 0 -6 5l-82 142q-2 3 0 7l124 228l4 1q3 1 4 1h59q10 0 6 -11z" />
<glyph unicode="W" d="M357 435l-71 -179h88l74 179h-91zM229 347l-45 -104l-43 104h-77l82 -193l-32 -77h78l114 270h-77zM355 194q0 -19 -13.5 -33t-32.5 -14t-33 13.5t-14 33.5q0 19 14 32.5t33 13.5t32.5 -13.5t13.5 -32.5z" />
<glyph unicode="X" d="M339 395h-166q-73 0 -91 -15t-18 -82v-84q0 -67 18 -82t91 -15h165q73 0 90.5 15t17.5 82v84q1 67 -16.5 82t-90.5 15zM216 187v144l109 -72z" />
<glyph unicode="Y" d="M104 416q3 10 13 14q27 21 59 18q28 -3 34 -30q4 -17 -4 -40q-4 -14 -11 -42t-11 -42q-2 -4 -2 -16q0 -10 12 -12q10 -2 24 3q19 5 36 14q4 4 4 5q1 8 2.5 16.5t3.5 18.5t3 16q2 10 5.5 28t4.5 23q1 12 5 34q0 8 -2 11q-2 6 3 8q19 5 31 3q6 -1 9.5 -5.5t2.5 -10.5 q0 -12 -3 -27q-2 -10 -5 -28t-4 -28q-3 -13 -10 -59t-10 -59q0 -4 -2 -12t-2 -12q0 -3 1 -3q57 -8 96 -28q3 0 8 -2t8 -2q5 -3 5 -7q0 -11 -5 -19q-9 -17 -32 -10q-16 8 -24 13q-25 15 -56 19h-5q-3 0 -3 -1q-5 -27 -16 -50q-10 -21 -25 -32q-18 -12 -37 -16q-1 0 -4 -0.5 t-4 -0.5h-10h-3q-22 2 -35 17q-15 19 -10 43q7 38 42 58q24 14 61 19q3 0 3 3q0 8 3 15q1 3 2 9t1 7q-1 -3 -6 -3q-35 -22 -77 -16q-21 0 -30 17q-9 15 -4 35q19 72 21 77q1 6 4.5 19t5.5 21q1 8 -2.5 12.5t-12.5 2.5q-15 -7 -22 -15q-6 -2 -8 0q-10 10 -11 15q-1 2 -5 11v3 zM237 165q-28 -5 -42 -19q-9 -10 -9 -23q0 -15 16 -13q8 2 17 13q6 7 13 27q2 3 3 8t2 7z" />
<glyph unicode="Z" d="M64 272q-8 -79 45 -141q21 -26 51 -43q34 -20 80 -26q79 -6 141 45q59 50 67 131q8 79 -45 141q-19 25 -51 43q-34 21 -80 26q-79 8 -141 -45q-59 -51 -67 -131zM123 216l37 146q3 14 16 22q30 20 67 22q4 0 6 -1.5t2 -2.5v-2l-48 -162q0 -4 2 -4t5 3l59 69 q10 13 27.5 15t31.5 -7q13 -11 13 -28l-8 -80q0 -4 1 -4q4 0 5 3l55 89q2 4 5.5 3.5t5.5 -4.5q7 -21 5 -53q-5 -59 -48.5 -99t-102.5 -40q-4 0 -6 2t-2 4v2l19 89q0 5 -1 5q-3 0 -7 -3l-62 -78q-6 -10 -14 -4q-29 15 -55 48q-15 29 -8 50z" />
<glyph unicode="a" d="M259 438q-44 0 -77 -19t-41 -61q-2 -7 8 -11l51 -5q6 0 10 10q6 32 43 32q21 0 30 -14q5 -12 5 -39v-6q-76 -8 -99 -18q-56 -23 -56 -86q0 -40 22.5 -61t57.5 -21q28 0 46 8.5t40 30.5q15 -23 31 -36q8 -2 12 2q30 25 40 35q8 5 0 15q-19 25 -19 49v82v7q0 21 -0.5 32 t-6.5 26.5t-17 25.5q-29 22 -80 22zM274 282h14v-12q0 -39 -10 -56q-14 -24 -36 -24q-32 0 -32 39q0 49 64 53zM419 160q-25 0 -41 -11q-5 -5 1 -7q41 6 50 -1q3 -4 -11 -48q-2 -2 0 -3t4 1q15 13 22 35.5t2 27.5q-2 6 -27 6zM67 152q-5 0 -1 -6q78 -72 190 -72q92 0 155 46 q5 4 2.5 8t-8.5 2q-68 -29 -146 -29q-102 0 -190 49z" />
<glyph unicode="b" d="M134 248q36 7 36 54q0 13 -2 15q-2 14 -14 29t-29 16h-3q-14 -2 -23.5 -15t-11.5 -25l-2 -12v-9q0 -20 11 -37t30 -18q5 0 8 2zM213 333q18 0 30.5 16.5t12.5 40.5t-12.5 41t-30.5 17t-30.5 -17t-12.5 -41t12.5 -40.5t30.5 -16.5zM176 141q0 -11 6.5 -18.5t12.5 -7.5h23 v53h-23q-7 0 -13 -8t-6 -19zM309 323h6q18 1 30.5 18t16.5 37v6q0 18 -11 33.5t-26 19.5t-31.5 -15t-18.5 -38v-11q0 -46 34 -50zM373 186q-41 36 -64 70q-26 38 -58 38t-53 -32q-26 -37 -49 -54q-47 -35 -47 -74q0 -34 21 -52t48 -18q23 0 46 5t34 5q18 0 43 -5t39 -5 q37 0 52 21t15 48q0 28 -27 53zM243 93h-54q-16 2 -27.5 15.5t-11.5 32.5v1q0 19 11.5 32t27.5 15h29v38h25v-134zM342 93h-60q-12 3 -18.5 9t-7.5 10v5v72h26v-64q0 -3 2.5 -5t4.5 -2l2 -1h27v72h26v-96h-2zM429 283q0 15 -11 32.5t-34 17.5q-40 0 -40 -59q0 -56 43 -56h3 q40 1 40 59q-1 3 -1 6z" />
<glyph unicode="c" d="M446 288l-3 6l-5 5q-3 2 -25 3t-27 5q-7 7 -10 34q-2 22 -11 41q-13 26 -41.5 45t-53.5 21h-84q-50 0 -86 -35.5t-36 -86.5v-140q0 -51 35.5 -86.5t86.5 -35.5h139q50 0 85.5 35.5t35.5 86.5v102zM187 349h67q10 0 17 -6.5t7 -16.5t-6.5 -17t-17.5 -7h-67q-10 0 -17 7.5 t-7 16.5q4 23 24 23zM325 163h-136q-10 0 -17 7t-7 16t6.5 15.5t17.5 6.5h136q10 0 16 -6.5t6 -15.5t-6.5 -16t-15.5 -7z" />
<glyph unicode="d" d="M72 357l170 -80q15 -8 28 0l170 80q2 1 2 4t-2 4l-168 80q-16 8 -32 0l-170 -80q-2 -7 2 -8zM440 259l-35 16q-11 5 -23 0l-112 -53q-15 -7 -28 0l-112 53q-11 5 -21 0l-37 -17q-2 -2 -2 -4.5t2 -3.5l170 -80q15 -8 28 0l170 80q2 2 2 5t-2 4zM440 157l-35 16 q-11 5 -23 0l-112 -53q-15 -8 -28 0l-112 53q-11 5 -21 0l-37 -18q-2 -1 -2 -4t2 -4l170 -80q15 -8 28 0l170 80q2 1 2 5t-2 5z" />
<glyph unicode="e" d="M170 405l235 -235q10 -10 10 -22.5t-10 -22.5l-18 -18q-10 -10 -22.5 -10t-22.5 10l-235 235q-10 10 -10 22.5t10 22.5l18 18q8 10 21.5 10t23.5 -10zM405 342l-235 -235q-10 -10 -22.5 -10t-22.5 10l-18 18q-10 10 -10 22.5t10 22.5l235 235q10 10 22.5 10t22.5 -10 l18 -18q10 -8 10 -21.5t-10 -23.5z" />
<glyph unicode="f" d="M64 448v-384h384v384h-384zM254 416v-158h-158v158h158zM258 96v160h158v-160h-158z" />
<glyph unicode="g" d="M178 365v-24h33q5 0 5 5v24h-34q-4 0 -4 -5zM178 315v-126h33q5 0 5 5v126h-34q-4 0 -4 -5zM128 365v-45h-59q-5 0 -5 -5v-126h99q5 0 5 5v176h-35q-5 0 -5 -5zM128 221l-5 -5h-22v70l5 5h22v-70zM229 315v-126h64v-18h-61q-5 0 -5 -5v-24h98q5 0 5 5v173h-100q2 0 1 -1 q-2 -2 -2 -4zM267 286l5 5h22v-70l-4 -5h-23v70zM349 320q-5 0 -5 -5v-126h64v-18h-61q-5 0 -5 -5v-24h100q4 0 4 5v173h-97zM410 221l-5 -5h-23v70l5 5h23v-70z" />
<glyph unicode="h" d="M256 448q-80 0 -136 -56t-56 -136t56 -136t136 -56t136 56t56 136t-56 136t-136 56zM254 136q-53 0 -81.5 32.5t-33.5 66.5q-2 14 13 18q14 2 18 -13q0 -6 5 -21t26 -34t53 -19q33 0 55.5 19t28.5 34t6 21q4 15 18 11q13 -2 11 -17q-7 -35 -37 -66.5t-82 -31.5z" />
<glyph unicode="i" d="M386 390h-260q-25 0 -43.5 -18t-18.5 -44v-144q0 -26 18.5 -44t43.5 -18h258q26 0 44 18t18 44v144q1 26 -17 44t-43 18zM336 266l74 62v-125zM102 202v124l74 -62zM131 354h250l-125 -108zM126 158q-6 0 -12 4l89 76l40 -33q5 -5 13 -5q5 0 13 5l40 33l89 -76 q-6 -4 -12 -4h-260z" />
<glyph unicode="j" d="M218 448q-17 0 -29.5 -12.5t-12.5 -29.5v-41q0 -8 -8 -8h-42q-13 0 -23 -9.5t-10 -22.5q0 -63 11 -95q12 -40 45 -48l59 -12q13 -3 26 4q11 7 14 23l2 19q13 -19 43 -19h25q15 0 24.5 -10t9.5 -24v-25q0 -11 -7.5 -18.5t-18.5 -7.5h-24q-7 0 -9 6q0 5 1 7q6 3 7 3h16 q8 0 8 8v34q0 8 -8 8h-26q-20 0 -34.5 -15t-14.5 -35v-16q0 -20 14.5 -35t34.5 -15h42q20 0 35 8.5t23.5 25t14 32.5t7.5 40t2.5 36.5t0.5 33.5q0 85 -8 130q-9 41 -50 48h-6q-5 1 -13.5 2t-18 1.5t-20 1.5t-18.5 1q-7 26 -36 26h-28zM163 427l-59 -59q13 5 22 5h34v33 q0 3 3 21zM339 298q8 0 14.5 -6.5t6.5 -14.5t-5 -13q-12 10 -33 10h-4v4q0 8 6.5 14t14.5 6z" />
<glyph unicode="k" d="M448 254q0 80 -56 136t-136 56t-136 -55.5t-56 -136.5q0 -72 46.5 -125.5t115.5 -64.5v134h-48v56h48v42q0 36 19.5 55.5t52.5 19.5l43 -3v-48h-24q-32 0 -32 -30v-37h53l-8 -56h-45v-135q71 14 117 67.5t46 124.5z" />
<glyph unicode="l" d="M448 256q0 -38 -26 -64t-64 -26q-37 0 -63 26.5t-26 63.5t26 63.5t63 26.5q38 0 64 -26t26 -64zM243 256q0 -37 -26 -63.5t-63 -26.5q-38 0 -64 26t-26 64t26 64t64 26q37 0 63 -26.5t26 -63.5z" />
<glyph unicode="m" d="M69 443v-374h125v125h124v124h125v125h-374z" />
<glyph unicode="n" d="M168 280v-58h96q-5 -26 -28.5 -49t-67.5 -23q-43 0 -72.5 31t-29.5 75t29.5 75t72.5 31q36 0 67 -26l45 43q-45 45 -112 45q-70 0 -119 -49t-49 -119t49 -119t119 -49q72 0 116 45.5t44 117.5q0 19 -2 29h-158zM512 280h-48v48h-48v-48h-48v-48h48v-48h48v48h48v48z" />
<glyph unicode="o" d="M109 448h56l72 -147l19 -43q10 20 21 43l73 147h53l-125 -235v-149h-48v152z" />
<glyph unicode="p" d="M256 80l-27 26q-48 43 -69.5 63.5t-48.5 51t-37 55t-10 50.5q0 45 30.5 75.5t75.5 30.5q51 0 86 -40q35 40 86 40q45 0 75.5 -30.5t30.5 -75.5q0 -26 -10 -50.5t-37 -55t-48.5 -51t-69.5 -63.5z" />
<glyph unicode="q" d="M446 333q-2 30 -9 46q-5 15 -23 35q-20 18 -35 23q-21 8 -46 9q-19 2 -77 2t-77 -2q-24 0 -48 -8q-23 -11 -33 -24q-13 -10 -24 -33q-8 -24 -8 -48q-2 -19 -2 -77t2 -77q2 -30 9 -46q5 -15 23 -35q15 -16 35 -23q21 -8 46 -9q19 -2 77 -2t77 2q30 2 46 9q15 5 35 23 q16 15 23 35q8 21 9 46q2 19 2 77t-2 77zM402 181q0 -20 -7 -32q-4 -12 -13 -19q-7 -9 -19 -13q-14 -5 -32 -7q-19 -1 -75 -1t-75 1q-20 0 -32 7q-12 4 -19 13q-9 7 -13 19q-5 14 -7 32q-1 19 -1 75t1 75q0 20 7 32q4 12 13 19q7 9 19 13q14 5 32 7q19 1 75 1t75 -1 q20 0 32 -7q12 -4 19 -13q9 -7 13 -19q5 -14 7 -32q1 -19 1 -75q0 -29 -0.5 -49t-0.5 -26zM256 357q-42 0 -71.5 -29.5t-29.5 -71.5t29.5 -71.5t71.5 -29.5t71.5 29.5t29.5 71.5t-29.5 71.5t-71.5 29.5zM256 200q-22 0 -39 17t-17 39t17 39t39 17t39 -17t17 -39t-17 -39 t-39 -17zM355 384q-12 0 -20.5 -8.5t-8.5 -20.5t8.5 -20.5t20.5 -8.5t20.5 8.5t8.5 20.5t-8.5 20.5t-20.5 8.5z" />
<glyph unicode="r" d="M197 243q11 0 19 -8l18 -17q19 -21 0 -40l-63 -63q-8 -8 -19 -8t-19 8l-18 18q-8 8 -8 20t8 20l63 62q6 8 19 8zM197 285q-29 0 -50 -21l-62 -62q-21 -21 -21 -50t21 -50l17 -17q21 -21 50 -21t50 21l62 62q20 20 20 49.5t-20 49.5l-18 18q-18 21 -49 21zM360 406 q11 0 19 -8l18 -17q8 -8 8 -20t-8 -20l-63 -63q-8 -8 -19 -8q-9 0 -19 8l-18 18q-8 8 -8 20t8 20l63 62q8 8 19 8zM360 448q-29 0 -50 -21l-62 -62q-20 -20 -20 -49.5t20 -49.5l18 -18q19 -21 49 -21q29 0 50 21l62 62q21 21 21 50t-21 50l-17 17q-21 21 -50 21zM309 306 l-101 -103l-2 2l-1 1l102 103l2 -2v-1zM306 309l1 -2l2 -1l-101 -103l-2 2l-1 1zM306 338q-10 0 -20 -8l-102 -103q-8 -8 -8 -19q0 -12 10 -22q8 -10 22 -10q11 0 19 8l103 102q8 10 8 18q1 13 -10 24q-17 10 -22 10z" />
<glyph unicode="s" d="M110 448q-19 0 -32.5 -13.5t-13.5 -32.5t13.5 -33t32.5 -14q20 0 33.5 13.5t13.5 33.5q1 19 -12.5 32.5t-34.5 13.5zM70 64h80v256h-80v-256zM358 328q-1 -1 -7 0t-16.5 -1.5t-21.5 -6t-21 -13t-14 -22.5v35h-80v-256h80v136q0 7 2 17t13.5 23.5t32.5 13.5q20 0 30.5 -15 t11.5 -29v-15v-131h80v149q-2 1 0 12t-3 28.5t-12 34t-27 28.5t-48 12z" />
<glyph unicode="t" d="M269 424q-35 0 -64 -11l-35 35h-8l-2 -2q-66 -30 -93 -94l-3 -6l37 -37q-13 -34 -13 -64q0 -74 52.5 -126.5t126.5 -52.5t126.5 52.5t52.5 126.5q1 74 -51 126.5t-126 52.5zM326 211q-3 -3 -6 -5q-8 -6 -14 -14q-4 -5 -5 -6t-2.5 -3.5t-2.5 -3.5q-1 0 -2.5 -2.5 t-2.5 -3.5l-33 8v2q1 2 1 3q1 1 2 3l1 1q1 2 2.5 4t2.5 4q1 1 2 3l1 2q4 7 7 8q0 1 1 2v1q11 13 34 31q3 2 6.5 4t6.5 4h1l3 1q3 1 4 2l6 -34q-3 -1 -6 -4q-2 -4 -7 -7zM93 350q20 44 70 71l24 -24q-46 -25 -70 -71zM269 90q-65 0 -110 45.5t-45 109.5q0 24 9 51l125 -125h2 h1l47 -9l64 -13h1q3 0 5 1q2 2 2 5l-13 64l-10 47q0 1 -1 3l-125 125q21 8 51 8q64 0 109.5 -46t45.5 -110q-2 -66 -48 -111t-110 -45z" />
<glyph unicode="u" d="M109 346q0 7 -5 12l-35 44v6h112l86 -189l75 189h106v-6l-30 -29q-4 -2 -4 -8v-216q0 -7 4 -8l30 -29v-6h-150v6l30 30q3 4 3 8v173l-86 -219h-11l-101 219v-147q-3 -8 5 -18l40 -49v-7h-114v7l40 51q7 7 5 18v168z" />
<glyph unicode="v" d="M256 448q-82 0 -137 -53.5t-55 -132.5q0 -85 61 -137q5 -5 5 -11l1 -34q0 -8 7 -12.5t14 -0.5l38 18q6 1 10 0q29 -8 56 -8q82 0 137 53t55 132t-55 132.5t-137 53.5zM141 208l56 90q7 10 19.5 12.5t21.5 -4.5l45 -34q7 -4 15 0l60 46q6 5 12 0t1 -12l-56 -90 q-7 -11 -19.5 -13t-21.5 5l-45 34q-7 4 -15 0l-60 -47q-6 -5 -11.5 0.5t-1.5 12.5z" />
<glyph unicode="w" d="M64 424v-299q0 -23 18.5 -32.5t37.5 -0.5t19 33v205q3 21 21.5 29t36 -1.5t17.5 -32.5v-151q0 -23 20.5 -32.5t41 0t20.5 32.5v100q2 22 21 30t36.5 -1.5t17.5 -32.5v-20q0 -24 18.5 -33.5t37.5 0.5t19 33v174h-382z" />
<glyph unicode="x" d="M381 251q25 0 43 18t18 43t-18 43t-43 18t-43 -17.5t-18 -43.5t18 -43.5t43 -17.5zM243 240q23 0 39 15.5t16 38.5t-16 39t-39 16t-38.5 -16t-15.5 -39q0 -22 15.5 -38t38.5 -16zM118 230q21 0 35.5 15t14.5 35t-14.5 35t-35.5 15q-20 0 -34.5 -15t-14.5 -35t14.5 -35 t34.5 -15zM118 219q-23 0 -38.5 -17t-15.5 -39v-19q0 -5 5 -5h99q5 0 5 5v19q0 22 -16 39t-39 17zM243 227q-26 0 -43.5 -18.5t-17.5 -43.5v-21q0 -5 5 -5h109q5 0 5 5v21q2 24 -15 43t-43 19zM381 238q-28 0 -47.5 -20.5t-19.5 -47.5v-24q0 -7 6 -7h122q6 0 6 7v24 q0 26 -19.5 47t-47.5 21z" />
<glyph unicode="y" d="M258 448q-65 0 -109.5 -46.5t-44.5 -111.5q0 -43 31.5 -98t68 -91.5t54.5 -36.5q16 0 51 36.5t66 92t31 97.5q1 64 -43 111t-105 47zM259 206q-39 0 -66.5 26t-27.5 62q0 30 19 58q0 -14 10.5 -24.5t26.5 -10.5t26.5 10.5t10.5 24.5q0 23 -23 32q12 3 24 3q37 0 63.5 -27 t26.5 -67q0 -34 -27 -60.5t-63 -26.5z" />
<glyph unicode="z" d="M357 226q-3 55 -47 83v101q11 7 20 16.5t12 15.5l4 6h-181q11 -22 35 -38v-103q-46 -27 -46 -83h83v-104q0 -11 6 -34.5t13 -23.5t13 23.5t6 34.5v104z" />
<glyph unicode="&#x25fc;" horiz-adv-x="375" d="M0 375h375v-375h-375v375z" />
</font>
</defs>
</svg>
